<?xml version="1.0" standalone="no"?><!DOCTYPE svg PUBLIC "-//W3C//DTD SVG 1.1//EN" "http://www.w3.org/Graphics/SVG/1.1/DTD/svg11.dtd"><svg t="1569848977992" class="icon" viewBox="0 0 1024 1024" version="1.1" xmlns="http://www.w3.org/2000/svg" p-id="1412" xmlns:xlink="http://www.w3.org/1999/xlink" width="600" height="600"><defs><style type="text/css"></style></defs><path d="M979.1488 132.4032h-49.5616a358.4 358.4 0 0 0-206.9504-66.1504A430.08 430.08 0 0 0 512 124.928a430.08 430.08 0 0 0-210.6368-58.6752 358.4 358.4 0 0 0-206.9504 66.1504H44.8512A44.9536 44.9536 0 0 0 0 177.2544v735.6416a44.8512 44.8512 0 0 0 44.8512 44.8512h934.2976a44.8512 44.8512 0 0 0 44.8512-44.8512V177.2544a44.9536 44.9536 0 0 0-44.8512-44.8512z m-14.9504 59.904v705.6384h-17.2032V192.3072z m-77.0048-16.384v693.1456a352.6656 352.6656 0 0 0-164.5568-40.96 422.7072 422.7072 0 0 0-180.736 42.7008V176.7424a393.8304 393.8304 0 0 1 64.4096-29.5936c78.0288-27.7504 155.4432-28.0576 225.28 0a318.1568 318.1568 0 0 1 55.6032 28.7744z m-90.8288 722.0224H645.12a306.176 306.176 0 0 1 151.2448 0zM482.0992 176.7424v694.5792a422.7072 422.7072 0 0 0-180.736-42.7008 352.6656 352.6656 0 0 0-164.5568 40.96V175.9232a318.1568 318.1568 0 0 1 55.5008-28.8768c69.9392-27.9552 147.3536-27.648 225.28 0a393.8304 393.8304 0 0 1 64.512 29.696zM378.88 897.9456H227.6352a306.176 306.176 0 0 1 151.2448 0zM77.0048 192.3072v705.6384H59.8016V192.3072z" p-id="1413"></path></svg>