<?xml version="1.0" standalone="no"?><!DOCTYPE svg PUBLIC "-//W3C//DTD SVG 1.1//EN" "http://www.w3.org/Graphics/SVG/1.1/DTD/svg11.dtd"><svg t="1569849668509" class="icon" viewBox="0 0 1024 1024" version="1.1" xmlns="http://www.w3.org/2000/svg" p-id="914" xmlns:xlink="http://www.w3.org/1999/xlink" width="600" height="600"><defs><style type="text/css"></style></defs><path d="M514.048 1024c-26.624 0-53.248-6.144-77.824-20.48L126.976 825.344c-47.104-28.672-77.824-79.872-77.824-135.168V333.824c0-55.296 30.72-106.496 77.824-135.168L436.224 20.48c47.104-28.672 108.544-28.672 155.648 0L901.12 198.656c47.104 28.672 77.824 79.872 77.824 135.168v356.352c0 55.296-30.72 106.496-77.824 135.168L591.872 1003.52c-24.576 14.336-51.2 20.48-77.824 20.48z m0-954.368c-14.336 0-28.672 4.096-43.008 12.288L163.84 260.096c-26.624 14.336-43.008 43.008-43.008 73.728v356.352c0 30.72 16.384 59.392 43.008 73.728L471.04 942.08c26.624 14.336 59.392 14.336 86.016 0l309.248-178.176c26.624-14.336 43.008-43.008 43.008-73.728V333.824c0-30.72-16.384-59.392-43.008-73.728L557.056 81.92c-12.288-8.192-28.672-12.288-43.008-12.288z" fill="#cdcdcd" p-id="915"></path><path d="M514.048 512m-71.68 0a71.68 71.68 0 1 0 143.36 0 71.68 71.68 0 1 0-143.36 0Z" fill="#cdcdcd" p-id="916"></path></svg>